<mxfile host="app.diagrams.net" agent="Mozilla/5.0 (Macintosh; Intel Mac OS X 10_15_7) AppleWebKit/537.36 (KHTML, like Gecko) Chrome/141.0.0.0 Safari/537.36" version="27.2.0">
  <diagram name="Page-1" id="e7e014a7-5840-1c2e-5031-d8a46d1fe8dd">
    <mxGraphModel grid="1" page="1" gridSize="10" guides="1" tooltips="1" connect="1" arrows="1" fold="1" pageScale="1" pageWidth="1169" pageHeight="826" background="none" math="0" shadow="0">
      <root>
        <mxCell id="0" />
        <mxCell id="1" parent="0" />
        <mxCell id="2" value="Systema" style="swimlane;whiteSpace=wrap" vertex="1" parent="1">
          <mxGeometry x="162" y="40" width="285.5" height="750" as="geometry" />
        </mxCell>
        <mxCell id="5" value="" style="ellipse;shape=startState;fillColor=#000000;strokeColor=#ff0000;" vertex="1" parent="2">
          <mxGeometry x="100" y="40" width="30" height="30" as="geometry" />
        </mxCell>
        <mxCell id="6" value="" style="edgeStyle=elbowEdgeStyle;elbow=horizontal;verticalAlign=bottom;endArrow=open;endSize=8;strokeColor=#FF0000;endFill=1;rounded=0;entryX=0.5;entryY=0;entryDx=0;entryDy=0;" edge="1" parent="2" source="5" target="XWyW28E1iXXHiJKFsiKb-41">
          <mxGeometry x="100" y="40" as="geometry">
            <mxPoint x="115.5" y="110" as="targetPoint" />
          </mxGeometry>
        </mxCell>
        <mxCell id="XWyW28E1iXXHiJKFsiKb-41" value="Job Iniciado&amp;nbsp;&lt;div&gt;con Lock&lt;/div&gt;" style="rounded=1;whiteSpace=wrap;html=1;arcSize=40;fontColor=#000000;fillColor=#ffffc0;strokeColor=#ff0000;" vertex="1" parent="2">
          <mxGeometry x="55" y="102" width="120" height="40" as="geometry" />
        </mxCell>
        <mxCell id="XWyW28E1iXXHiJKFsiKb-42" value="" style="edgeStyle=orthogonalEdgeStyle;html=1;verticalAlign=bottom;endArrow=open;endSize=8;strokeColor=#ff0000;rounded=0;entryX=0.5;entryY=0;entryDx=0;entryDy=0;" edge="1" parent="2" source="XWyW28E1iXXHiJKFsiKb-41" target="XWyW28E1iXXHiJKFsiKb-44">
          <mxGeometry relative="1" as="geometry">
            <mxPoint x="115" y="232" as="targetPoint" />
          </mxGeometry>
        </mxCell>
        <mxCell id="XWyW28E1iXXHiJKFsiKb-44" value="Buscar Correos" style="rounded=1;whiteSpace=wrap;html=1;arcSize=40;fontColor=#000000;fillColor=#ffffc0;strokeColor=#ff0000;" vertex="1" parent="2">
          <mxGeometry x="54.5" y="172" width="120" height="40" as="geometry" />
        </mxCell>
        <mxCell id="XWyW28E1iXXHiJKFsiKb-45" value="" style="edgeStyle=orthogonalEdgeStyle;html=1;verticalAlign=bottom;endArrow=open;endSize=8;strokeColor=#ff0000;rounded=0;entryX=0.5;entryY=0;entryDx=0;entryDy=0;" edge="1" parent="2" source="XWyW28E1iXXHiJKFsiKb-44" target="XWyW28E1iXXHiJKFsiKb-48">
          <mxGeometry relative="1" as="geometry">
            <mxPoint x="115.5" y="342" as="targetPoint" />
          </mxGeometry>
        </mxCell>
        <mxCell id="31" value="Importados sin procesar" style="shape=note;whiteSpace=wrap;size=10;" vertex="1" parent="2">
          <mxGeometry x="185.5" y="122" width="100" height="50" as="geometry" />
        </mxCell>
        <mxCell id="32" value="" style="endArrow=none;strokeColor=#FF0000;endFill=0;rounded=0;dashed=1;exitX=0.933;exitY=0.125;exitDx=0;exitDy=0;exitPerimeter=0;" edge="1" parent="2" source="XWyW28E1iXXHiJKFsiKb-44" target="31">
          <mxGeometry relative="1" as="geometry">
            <mxPoint x="367.121212121212" y="375" as="sourcePoint" />
          </mxGeometry>
        </mxCell>
        <mxCell id="XWyW28E1iXXHiJKFsiKb-48" value="Codigo de Campaña" style="rhombus;whiteSpace=wrap;html=1;fontColor=#000000;fillColor=#ffffc0;strokeColor=#ff0000;" vertex="1" parent="2">
          <mxGeometry x="67.75" y="232" width="94.5" height="58" as="geometry" />
        </mxCell>
        <mxCell id="XWyW28E1iXXHiJKFsiKb-49" value="no" style="edgeStyle=orthogonalEdgeStyle;html=1;align=left;verticalAlign=bottom;endArrow=open;endSize=8;strokeColor=#ff0000;rounded=0;entryX=0.5;entryY=0;entryDx=0;entryDy=0;" edge="1" parent="2" source="XWyW28E1iXXHiJKFsiKb-48" target="XWyW28E1iXXHiJKFsiKb-53">
          <mxGeometry x="0.8242" y="-17" relative="1" as="geometry">
            <mxPoint x="155.5" y="342" as="targetPoint" />
            <mxPoint as="offset" />
          </mxGeometry>
        </mxCell>
        <mxCell id="XWyW28E1iXXHiJKFsiKb-50" value="si" style="edgeStyle=orthogonalEdgeStyle;html=1;align=left;verticalAlign=top;endArrow=open;endSize=8;strokeColor=#ff0000;rounded=0;entryX=0.86;entryY=0.5;entryDx=0;entryDy=0;entryPerimeter=0;" edge="1" parent="2" source="XWyW28E1iXXHiJKFsiKb-48" target="XWyW28E1iXXHiJKFsiKb-62">
          <mxGeometry x="0.0789" y="11" relative="1" as="geometry">
            <mxPoint x="248" y="610" as="targetPoint" />
            <Array as="points">
              <mxPoint x="226" y="261" />
            </Array>
            <mxPoint as="offset" />
          </mxGeometry>
        </mxCell>
        <mxCell id="XWyW28E1iXXHiJKFsiKb-53" value="Código de&lt;div&gt;Caso&lt;/div&gt;" style="rhombus;whiteSpace=wrap;html=1;fontColor=#000000;fillColor=#ffffc0;strokeColor=#ff0000;" vertex="1" parent="2">
          <mxGeometry x="67.75" y="312" width="95.5" height="52" as="geometry" />
        </mxCell>
        <mxCell id="XWyW28E1iXXHiJKFsiKb-54" value="no" style="edgeStyle=orthogonalEdgeStyle;html=1;align=left;verticalAlign=bottom;endArrow=open;endSize=8;strokeColor=#ff0000;rounded=0;entryX=0.5;entryY=0;entryDx=0;entryDy=0;" edge="1" parent="2" source="XWyW28E1iXXHiJKFsiKb-53" target="XWyW28E1iXXHiJKFsiKb-59">
          <mxGeometry x="0.022" y="-17" relative="1" as="geometry">
            <mxPoint x="115.5" y="432" as="targetPoint" />
            <mxPoint as="offset" />
          </mxGeometry>
        </mxCell>
        <mxCell id="XWyW28E1iXXHiJKFsiKb-55" value="si" style="edgeStyle=orthogonalEdgeStyle;html=1;align=left;verticalAlign=top;endArrow=open;endSize=8;strokeColor=#ff0000;rounded=0;exitX=1;exitY=0.5;exitDx=0;exitDy=0;entryX=0.75;entryY=0.5;entryDx=0;entryDy=0;entryPerimeter=0;" edge="1" parent="2" source="XWyW28E1iXXHiJKFsiKb-53" target="XWyW28E1iXXHiJKFsiKb-62">
          <mxGeometry x="-1" relative="1" as="geometry">
            <mxPoint x="205" y="590" as="targetPoint" />
          </mxGeometry>
        </mxCell>
        <mxCell id="XWyW28E1iXXHiJKFsiKb-59" value="Para Grupo Gmail" style="rhombus;whiteSpace=wrap;html=1;fontColor=#000000;fillColor=#ffffc0;strokeColor=#ff0000;" vertex="1" parent="2">
          <mxGeometry x="67.75" y="392" width="94.5" height="60" as="geometry" />
        </mxCell>
        <mxCell id="XWyW28E1iXXHiJKFsiKb-60" value="si" style="edgeStyle=orthogonalEdgeStyle;html=1;align=left;verticalAlign=bottom;endArrow=open;endSize=8;strokeColor=#ff0000;rounded=0;entryX=0.25;entryY=0.5;entryDx=0;entryDy=0;entryPerimeter=0;" edge="1" parent="2" source="XWyW28E1iXXHiJKFsiKb-59" target="XWyW28E1iXXHiJKFsiKb-62">
          <mxGeometry x="-1" relative="1" as="geometry">
            <mxPoint x="168" y="610" as="targetPoint" />
            <Array as="points">
              <mxPoint x="188" y="422" />
              <mxPoint x="188" y="540" />
              <mxPoint x="104" y="540" />
            </Array>
          </mxGeometry>
        </mxCell>
        <mxCell id="XWyW28E1iXXHiJKFsiKb-61" value="no" style="edgeStyle=orthogonalEdgeStyle;html=1;align=left;verticalAlign=top;endArrow=open;endSize=8;strokeColor=#ff0000;rounded=0;entryX=0.5;entryY=0;entryDx=0;entryDy=0;" edge="1" parent="2" source="XWyW28E1iXXHiJKFsiKb-59" target="XWyW28E1iXXHiJKFsiKb-65">
          <mxGeometry x="-1" relative="1" as="geometry">
            <mxPoint x="107.5" y="500" as="targetPoint" />
          </mxGeometry>
        </mxCell>
        <mxCell id="XWyW28E1iXXHiJKFsiKb-62" value="" style="shape=line;html=1;strokeWidth=6;strokeColor=#ff0000;points=[[0,0.5,0,0,0],[0.12,0.5,0,0,0],[0.25,0.5,0,0,0],[0.5,1,0,0,0],[0.75,0.5,0,0,0],[0.86,0.5,0,0,0],[1,0.5,0,0,0]];" vertex="1" parent="2">
          <mxGeometry x="54.5" y="550" width="200" height="10" as="geometry" />
        </mxCell>
        <mxCell id="XWyW28E1iXXHiJKFsiKb-65" value="Asigna al&amp;nbsp;&lt;div&gt;Supervisor&lt;/div&gt;" style="rounded=1;whiteSpace=wrap;html=1;arcSize=40;fontColor=#000000;fillColor=#ffffc0;strokeColor=#ff0000;" vertex="1" parent="2">
          <mxGeometry x="55.5" y="480" width="120" height="40" as="geometry" />
        </mxCell>
        <mxCell id="XWyW28E1iXXHiJKFsiKb-66" value="" style="edgeStyle=orthogonalEdgeStyle;html=1;verticalAlign=bottom;endArrow=open;endSize=8;strokeColor=#ff0000;rounded=0;entryX=0.12;entryY=0.5;entryDx=0;entryDy=0;entryPerimeter=0;" edge="1" parent="2" source="XWyW28E1iXXHiJKFsiKb-65" target="XWyW28E1iXXHiJKFsiKb-62">
          <mxGeometry relative="1" as="geometry">
            <mxPoint x="118" y="610" as="targetPoint" />
          </mxGeometry>
        </mxCell>
        <mxCell id="XWyW28E1iXXHiJKFsiKb-67" value="Aplica Asignación" style="rounded=1;whiteSpace=wrap;html=1;arcSize=40;fontColor=#000000;fillColor=#ffffc0;strokeColor=#ff0000;" vertex="1" parent="2">
          <mxGeometry x="95" y="590" width="116" height="40" as="geometry" />
        </mxCell>
        <mxCell id="XWyW28E1iXXHiJKFsiKb-69" value="" style="edgeStyle=orthogonalEdgeStyle;html=1;verticalAlign=bottom;endArrow=open;endSize=8;strokeColor=#ff0000;rounded=0;entryX=0.5;entryY=0;entryDx=0;entryDy=0;exitX=0.491;exitY=0.614;exitDx=0;exitDy=0;exitPerimeter=0;" edge="1" parent="2" source="XWyW28E1iXXHiJKFsiKb-62" target="XWyW28E1iXXHiJKFsiKb-67">
          <mxGeometry relative="1" as="geometry">
            <mxPoint x="108" y="655" as="targetPoint" />
            <mxPoint x="145" y="550" as="sourcePoint" />
          </mxGeometry>
        </mxCell>
        <mxCell id="XWyW28E1iXXHiJKFsiKb-77" value="Cualquier Error se registra " style="shape=note;whiteSpace=wrap;size=10;" vertex="1" parent="2">
          <mxGeometry x="8" y="640" width="100" height="50" as="geometry" />
        </mxCell>
        <mxCell id="XWyW28E1iXXHiJKFsiKb-78" value="" style="endArrow=none;strokeColor=#FF0000;endFill=0;rounded=0;dashed=1;exitX=0;exitY=0.5;exitDx=0;exitDy=0;exitPerimeter=0;entryX=0.2;entryY=0;entryDx=0;entryDy=0;entryPerimeter=0;" edge="1" parent="2" source="XWyW28E1iXXHiJKFsiKb-62" target="XWyW28E1iXXHiJKFsiKb-77">
          <mxGeometry relative="1" as="geometry">
            <mxPoint x="188" y="298" as="sourcePoint" />
            <mxPoint x="208" y="290" as="targetPoint" />
          </mxGeometry>
        </mxCell>
        <mxCell id="4" value="BD" style="swimlane;whiteSpace=wrap" vertex="1" parent="1">
          <mxGeometry x="447.5" y="40" width="280" height="750" as="geometry" />
        </mxCell>
        <mxCell id="XWyW28E1iXXHiJKFsiKb-70" value="Guarda en BD" style="rounded=1;whiteSpace=wrap;html=1;arcSize=40;fontColor=#000000;fillColor=#ffffc0;strokeColor=#ff0000;" vertex="1" parent="4">
          <mxGeometry x="102.5" y="480" width="120" height="40" as="geometry" />
        </mxCell>
        <mxCell id="XWyW28E1iXXHiJKFsiKb-71" value="" style="edgeStyle=orthogonalEdgeStyle;html=1;verticalAlign=bottom;endArrow=open;endSize=8;strokeColor=#ff0000;rounded=0;entryX=0.5;entryY=0;entryDx=0;entryDy=0;" edge="1" parent="4" source="XWyW28E1iXXHiJKFsiKb-70" target="XWyW28E1iXXHiJKFsiKb-72">
          <mxGeometry relative="1" as="geometry">
            <mxPoint x="162.5" y="580" as="targetPoint" />
          </mxGeometry>
        </mxCell>
        <mxCell id="38" value="" style="ellipse;shape=endState;fillColor=#000000;strokeColor=#ff0000" vertex="1" parent="4">
          <mxGeometry x="202.5" y="680" width="30" height="30" as="geometry" />
        </mxCell>
        <mxCell id="XWyW28E1iXXHiJKFsiKb-72" value="Error" style="rhombus;whiteSpace=wrap;html=1;fontColor=#000000;fillColor=#ffffc0;strokeColor=#ff0000;" vertex="1" parent="4">
          <mxGeometry x="32.5" y="570" width="77.5" height="40" as="geometry" />
        </mxCell>
        <mxCell id="XWyW28E1iXXHiJKFsiKb-73" value="no" style="edgeStyle=orthogonalEdgeStyle;html=1;align=left;verticalAlign=bottom;endArrow=open;endSize=8;strokeColor=#ff0000;rounded=0;entryX=0;entryY=0.5;entryDx=0;entryDy=0;" edge="1" parent="4" source="XWyW28E1iXXHiJKFsiKb-72" target="XWyW28E1iXXHiJKFsiKb-75">
          <mxGeometry x="-1" relative="1" as="geometry">
            <mxPoint x="172.5" y="600" as="targetPoint" />
          </mxGeometry>
        </mxCell>
        <mxCell id="XWyW28E1iXXHiJKFsiKb-74" value="si" style="edgeStyle=orthogonalEdgeStyle;html=1;align=left;verticalAlign=top;endArrow=open;endSize=8;strokeColor=#ff0000;rounded=0;exitX=0.5;exitY=1;exitDx=0;exitDy=0;entryX=0;entryY=0.5;entryDx=0;entryDy=0;" edge="1" parent="4" source="XWyW28E1iXXHiJKFsiKb-72" target="38">
          <mxGeometry x="-1" relative="1" as="geometry">
            <mxPoint x="162.5" y="680" as="targetPoint" />
          </mxGeometry>
        </mxCell>
        <mxCell id="XWyW28E1iXXHiJKFsiKb-75" value="Registra Error" style="rounded=1;whiteSpace=wrap;html=1;arcSize=40;fontColor=#000000;fillColor=#ffffc0;strokeColor=#ff0000;" vertex="1" parent="4">
          <mxGeometry x="157.5" y="570" width="120" height="40" as="geometry" />
        </mxCell>
        <mxCell id="XWyW28E1iXXHiJKFsiKb-76" value="" style="edgeStyle=orthogonalEdgeStyle;html=1;verticalAlign=bottom;endArrow=open;endSize=8;strokeColor=#ff0000;rounded=0;entryX=0.5;entryY=0;entryDx=0;entryDy=0;" edge="1" parent="4" source="XWyW28E1iXXHiJKFsiKb-75" target="38">
          <mxGeometry relative="1" as="geometry">
            <mxPoint x="217.5" y="670" as="targetPoint" />
            <Array as="points" />
          </mxGeometry>
        </mxCell>
        <mxCell id="XWyW28E1iXXHiJKFsiKb-68" value="" style="edgeStyle=orthogonalEdgeStyle;html=1;verticalAlign=bottom;endArrow=open;endSize=8;strokeColor=#ff0000;rounded=0;entryX=0;entryY=0.5;entryDx=0;entryDy=0;" edge="1" parent="1" source="XWyW28E1iXXHiJKFsiKb-67" target="XWyW28E1iXXHiJKFsiKb-70">
          <mxGeometry relative="1" as="geometry">
            <mxPoint x="317" y="790" as="targetPoint" />
          </mxGeometry>
        </mxCell>
      </root>
    </mxGraphModel>
  </diagram>
</mxfile>
